/* XPM */
static const char *WavacityLogo_xpm[] = {
/* columns rows colors chars-per-pixel */
"48 48 143 2 ",
"   c None",
".  c #020202",
"X  c #0B0B0B",
"o  c #141414",
"O  c #191917",
"+  c #1C1C1B",
"@  c #22221E",
"#  c #201F20",
"$  c #242423",
"%  c #292923",
"&  c #2B2C2B",
"*  c #31312E",
"=  c #343434",
"-  c #383835",
";  c #3C3C3C",
":  c #42423E",
">  c #403F40",
",  c #434343",
"<  c #474847",
"1  c #4A4A44",
"2  c #4C4C4C",
"3  c #504F4F",
"4  c #51514F",
"5  c #535353",
"6  c #595957",
"7  c #5B5B5B",
"8  c #61615E",
"9  c #636363",
"0  c #6C6C6C",
"q  c #70706F",
"w  c #737373",
"e  c #7B7B7B",
"r  c #7F8080",
"t  c #848484",
"y  c #888887",
"u  c #8C8C8C",
"i  c #8F8F90",
"p  c #939493",
"a  c #989892",
"s  c #999999",
"d  c #9B9B9C",
"f  c #9C9B9C",
"g  c #9D9D9D",
"h  c #9F9F9F",
"j  c #9F9E9F",
"k  c #9B9B9B",
"l  c #A0A0A0",
"z  c gray63",
"x  c gray64",
"c  c #A4A4A2",
"v  c #A4A4A4",
"b  c #A5A5A5",
"n  c gray65",
"m  c #A7A7A7",
"M  c #A5A5A5",
"N  c #A8A7A7",
"B  c gray66",
"V  c #AAAAAA",
"C  c #ACACAC",
"Z  c #AEAEAE",
"A  c #AFAFAF",
"S  c #ACACAB",
"D  c #B1B1AE",
"F  c #B2B2B2",
"G  c gray70",
"H  c gray71",
"J  c #B6B6B6",
"K  c #B4B4B4",
"L  c #B7B8B7",
"P  c gray72",
"I  c #B9B9B9",
"U  c #BBBBBB",
"Y  c #BCBCBC",
"T  c gray74",
"R  c gray",
"E  c gray75",
"W  c #BCBCBB",
"Q  c #C3C3C3",
"!  c #C5C5C5",
"~  c #C6C6C6",
"^  c gray78",
"/  c #C3C3C3",
"(  c #C8C8C8",
")  c #CACACA",
"_  c #CBCBCB",
"`  c #CDCDCD",
"'  c #CECECE",
"]  c gray81",
"[  c #CCCCCC",
"{  c #CFD0CF",
"}  c #D0D0D0",
"|  c #D1D0D0",
" . c gray82",
".. c #D2D2D2",
"X. c #D2D3D3",
"o. c LightGray",
"O. c gray83",
"+. c #D6D5D6",
"@. c #D5D6D6",
"#. c gray84",
"$. c #D7D7D7",
"%. c #D4D4D4",
"&. c #D8D8D8",
"*. c gray85",
"=. c #DADADA",
"-. c #DADBDA",
";. c gainsboro",
":. c #DDDDDD",
">. c #DFDEDF",
",. c #DEDFDF",
"<. c #DFDFDF",
"1. c #DDDDDD",
"2. c #DFE0E0",
"3. c gray88",
"4. c #E1E1E1",
"5. c #E2E2E2",
"6. c gray89",
"7. c #E4E3E4",
"8. c #E4E4E4",
"9. c gray90",
"0. c #E6E6E6",
"q. c #E7E7E7",
"w. c #E4E4E4",
"e. c gray91",
"r. c #E9E8E8",
"t. c #E9E9E9",
"y. c #EAE9EA",
"u. c #EAEAEA",
"i. c gray92",
"p. c #ECECEC",
"a. c gray93",
"s. c #EEEEED",
"d. c #EEEEEE",
"f. c #EFEEEF",
"g. c #EFEFEF",
"h. c #E9E9E9",
"j. c gray94",
"k. c #F1F1F1",
"l. c gray95",
"z. c #F2F3F3",
"x. c #F3F3F3",
"c. c #F3F3F3",
"v. c #FEFEFE",
/* pixels */
"                                                                                                ",
"                                        7 2 < , , < 5 8                                         ",
"                                  2 ; & & = , < 2 < ; & & , 7                                   ",
"                            < < ; , 5 7 5 < , , , < < 7 9 9 5 < 5 9                             ",
"                          ; , < ; ; ; < 2 2 2 2 5 5 5 5 2 , ; < 7 5 5                           ",
"                      = ; ; = < 5 5 5 < ; = = & & = ; < 2 5 5 2 ; = < 2 <                       ",
"                    $ = & 2 5 5 < &                           ; < , ; & , ;                     ",
"                  $ $ ; 5 2 =                                     $ ; ; = & =                   ",
"                + + < 5 =                                             $ ; ; $ &                 ",
"              o o = ;                                                     = ; $ +               ",
"            X o $ $                                                         & , + o             ",
"          X X + o                                                             $ ; + X           ",
"          X + +                                                                 & = o           ",
"        . X $                           D c u u y y a a                           ; + X         ",
"        . +                       C y e w w w w w w 0 9 7 8 t                       = X         ",
"        X +                   C t w w e e e e e e e e w 0 7 7 7 t                   & o         ",
"      . X                   y w e e t u a j b b b B B x u e 0 7 5 8                   o .       ",
"      . X                 w w e t u j H ^ } $.$.$.$.} ( F f y w 9 6 5                 o X       ",
"      . .               0 w e u x U } 4.i.g.i.i.8.7.<.} R B j p t 0 7 2               . .       ",
"      $ o             w 0 e p F } 4.i.k.k.k.g.8.8.4.<.$.R B x s a t 0 2 :             o $       ",
"      9 &           t 0 e p H &.i.k.k.k.k.g.i.8.w.4.<.%.R b j s a y w 5 : :           & 9       ",
"      , +         a 9 e a U &.i.k.k.k.k.k.g.i.8.4.2.&.} R b j a a p y w 7 : 1         + ,       ",
"      + & 2     & 5 w p U &.e.g.k.k.k.k.g.g.i.8.4.<.&.} R x s p a s s u 0 4 - +     2 & +       ",
"      ^ U ' $ + & < y C ' 4.i.g.g.g.g.g.g.g.i.8.<.&.$.' U x a p p x a u w 7 ; $ O $ ' U ^       ",
"    5 ( ' ' < ; & 5 x ^ $.<.8.i.g.g.8.8.8.i.i.4.<.$.} ( Q b s u p d p y w 7 , & ; < ' ' ( 5     ",
"    y <.4.U 0 9 = 9 H ' $.<.4.8.i.8.<.<.4.4.<.<.$.} ( ^ R b a u p a u e 0 7 , = 7 0 U 4.<.t     ",
"    y k.k.B 0 0 , 0 U } $.<.<.4.<.&.$.&.&.$.$.} { ( ^ R C s u y u u y e 0 7 ; ; 9 0 B k.k.t     ",
"    y v.v.b 0 0 < 9 C ' $.&.&.$.$.} ' } $.$.' ' Q R R H j u y t u y e w 9 5 = ; 9 0 b v.v.y     ",
"  5 p v.v.C 7 7 < < s Q } $.o.' ' ( ^ ( } $.' ( H F F x u y t y y e w 0 7 < & , 7 7 C v.v.p 2   ",
"  u p i.8.U 2 2 , ; y U $.&.} ^ ^ Q Q ( ^ Q R C b B b a u y y t e w w 0 7 < $ ; 2 2 H 8.i.p u   ",
"  B p ' ( U ; ; = = w B ( ' ' ^ ^ ^ ^ Q Q H b s x b x u y y e e w 0 0 0 3 ; + = ; ; U ( ' p B   ",
"  s u F F H ; & & & 9 a H Q Q R Q Q R U U b p t p x a y r e w q 0 9 9 5 = = + $ & ; H F F u a   ",
"  y w b B F < + + $ 5 t N H H L U H F C B s y w t e 9 w w w 0 0 9 7 5 < ; $ o + + < H B b w t   ",
"  Q < v.v.v.0 X X + 2 w s F F F C B b x j p e 0 w 0 0 7 9 0 9 9 7 5 < ; & + o X X 0 v.v.v.< R   ",
"    + v.v.v.C . . + < 0 u j x b j j s a p u e 0 0 9 7 5 9 9 7 7 5 < > = & + X . . C v.v.v.+     ",
"    o v.v.v.<.. . o < 9 a j x j s p a a p u t 0 0 9 9 7 7 7 5 5 < , = & $ + X . . <.v.v.v.o     ",
"      Q 8.<.4.. . o ; 9 y w y p u u u j i u e w 0 9 9 7 7 5 2 < , - & & $ o X . . 4.<.8.Q       ",
"      5 C b x $ . X = 7 e u e w e y y t w w 9 9 9 9 7 5 5 2 < ; = & & $ + o X . & b b C 5       ",
"        u 9 7 9 . . & 5 9 9 5 6 0 e w 0 9 2 7 7 7 7 5 2 < , ; = & $ $ + + O . . 9 7 9 t         ",
"        , ; $ < .   & < 7 9 7 6 9 0 0 9 7 7 7 5 5 2 < < ; ; = & $ $ + + @ +   . & $ & $         ",
"                      , 5 7 7 5 7 9 7 7 7 5 5 5 5 < , ; = & & $ $ + + @ $                       ",
"                        < 2 5 2 5 5 5 2 2 2 2 5 2 ; ; = & $ $ $ $ + $ %                         ",
"                          1 < , , , , , ; , < = + + + $ # $ $ + + @ $                           ",
"                            1 , ; = = = = = = $ $ $ $ + + + + + @ +                             ",
"                                : - * & & & $ + + + + o O + @ @                                 ",
"                                    = * & & $ $ + + + + $ %                                     ",
"                                          * & % $ @ @                                           ",
"                                                                                                "
};
